<svg xmlns="http://www.w3.org/2000/svg" xmlns:xlink="http://www.w3.org/1999/xlink" version="1.1" x="0px" y="0px" viewBox="0 0 64 80" enable-background="new 0 0 64 64" xml:space="preserve"><g><ellipse transform="matrix(0.0044 -1 1 0.0044 -3.9461 52.1524)" cx="24.219" cy="28.058" rx="2.2" ry="2.2"/><ellipse transform="matrix(0.0044 -1 1 0.0044 11.4647 67.7517)" cx="39.759" cy="28.118" rx="2.2" ry="2.2"/><path d="M40.053,35.76H23.885c-1.173,0-1.88,1.285-1.271,2.288c1.918,3.16,5.388,5.272,9.355,5.272s7.437-2.112,9.355-5.272   C41.933,37.045,41.226,35.76,40.053,35.76z M37.414,40.074c-1.448,0.982-3.357,1.583-5.459,1.583c-2.135,0-4.07-0.621-5.525-1.631   c-0.244-0.169-0.317-0.486-0.159-0.731l0.293-0.453c0.112-0.173,0.113-0.392,0.002-0.566l-0.041-0.064   c-0.229-0.36,0.041-0.821,0.481-0.821h9.767c0.459,0,0.725,0.498,0.458,0.855c-0.14,0.188-0.141,0.44-0.001,0.628l0.325,0.438   C37.738,39.56,37.672,39.899,37.414,40.074z"/><path d="M32.263,38.292h-0.508c-0.294,0-0.533,0.239-0.533,0.533v0.508c0,0.294,0.239,0.533,0.533,0.533h0.508   c0.294,0,0.533-0.239,0.533-0.533v-0.508C32.795,38.531,32.557,38.292,32.263,38.292z"/><path d="M29.325,38.292h-0.508c-0.294,0-0.533,0.239-0.533,0.533v0.508c0,0.294,0.239,0.533,0.533,0.533h0.508   c0.294,0,0.533-0.239,0.533-0.533v-0.508C29.858,38.531,29.619,38.292,29.325,38.292z"/><path d="M35.2,38.292h-0.508c-0.294,0-0.533,0.239-0.533,0.533v0.508c0,0.294,0.239,0.533,0.533,0.533H35.2   c0.294,0,0.533-0.239,0.533-0.533v-0.508C35.733,38.531,35.494,38.292,35.2,38.292z"/><path d="M54.265,58.01c-1.559-4.743-8.142-8.071-11.814-9.385c-0.81-0.29-1.317-1.143-1.083-1.971   c0.433-1.539,1.264-2.931,2.318-4.186c1.491-1.775,2.369-3.525,2.825-4.612c0.275-0.653,0.883-1.086,1.579-1.218   c2.543-0.479,4.064-2.43,4.318-5.617c0.154-1.937-0.314-3.556-1.354-4.683c-0.699-0.757-1.632-1.248-2.768-1.495   c-0.592-0.129-1.046-0.593-1.181-1.184c-0.107-0.468-0.225-0.924-0.353-1.369c-0.165-0.573,0.225-1.116,0.8-1.27   c1.217-0.327,1.597-1.516,1.288-2.526c-1.983-6.481-6.773-15.069-16.375-12.448c-0.285,0.078-0.592,0.07-0.874-0.018   c-8.205-2.566-14.455,5.93-16.453,12.463c-0.309,1.011,0.175,2.137,1.401,2.508c0.575,0.174,0.954,0.732,0.786,1.31   c-0.127,0.436-0.244,0.884-0.352,1.343c-0.139,0.591-0.597,1.054-1.191,1.178c-1.154,0.24-2.099,0.731-2.802,1.493   c-1.037,1.122-1.502,2.747-1.347,4.698c0.245,3.073,1.789,5.029,4.291,5.569c0.685,0.148,1.274,0.592,1.536,1.241   c0.764,1.895,1.829,3.463,2.893,4.637c1.096,1.21,1.879,2.637,2.314,4.168c0.233,0.822-0.246,1.69-1.051,1.977   c-3.665,1.306-10.284,4.64-11.848,9.397C8.629,61.47,8.953,64,8.953,64H31v-3.295c0-0.319-0.168-0.615-0.442-0.779l-3.594-2.15   c-0.586-0.351-1.317-0.353-1.905-0.005l-3.605,2.129c-0.289,0.171-0.609,0.255-0.928,0.255c-0.389,0-0.776-0.125-1.102-0.373   c-0.593-0.45-0.851-1.206-0.657-1.926l1.559-5.796c0.042-0.156,0.152-0.288,0.296-0.359c0.352-0.173,0.697-0.333,1.031-0.481   c0.431-0.192,0.885,0.212,0.754,0.665l-1.306,4.544c-0.152,0.527,0.406,0.978,0.889,0.718l2.047-1.096   c1.22-0.72,2.735-0.718,3.952,0.008l2.071,1.237c0.414,0.247,0.94-0.051,0.94-0.533v-1.228c0-0.309-0.123-0.606-0.342-0.824   l-4.863-4.846c-0.433-0.432-0.734-0.992-0.794-1.601c-0.041-0.413-0.103-0.822-0.184-1.227c-0.101-0.5,0.393-0.902,0.858-0.691   c1.96,0.891,4.118,1.388,6.379,1.388c2.234,0,4.367-0.488,6.307-1.373c0.464-0.212,0.96,0.189,0.859,0.69   c-0.08,0.398-0.14,0.8-0.181,1.206c-0.061,0.609-0.36,1.169-0.793,1.601l-4.904,4.894C33.123,54.967,33,55.263,33,55.572v1.189   c0,0.482,0.526,0.781,0.94,0.534l2.071-1.236c1.217-0.728,2.731-0.729,3.952-0.009l1.831,1.054c0.476,0.274,1.048-0.161,0.91-0.693   l-1.105-4.275c-0.118-0.456,0.345-0.845,0.771-0.645c0.361,0.17,0.732,0.353,1.108,0.549c0.139,0.072,0.244,0.202,0.285,0.354   l1.47,5.463c0.193,0.719-0.065,1.475-0.658,1.925c-0.325,0.248-0.712,0.373-1.102,0.373c-0.319,0-0.64-0.085-0.929-0.256   l-3.6-2.126c-0.591-0.349-1.325-0.347-1.913,0.005l-3.59,2.147C33.168,60.089,33,60.385,33,60.704V64h22.078   C55.078,64,55.402,61.47,54.265,58.01z M36.457,25.006c0.283-0.377,0.785-0.602,1.341-0.602h1.4h4.221   c0.836,0,1.543,0.54,1.543,1.18v4.612c0,0.64-0.707,1.18-1.543,1.18h-4.284c-0.717,0-1.351-0.392-1.508-0.933l-1.337-4.611   C36.186,25.473,36.324,25.185,36.457,25.006z M44.778,22.649c-0.419-0.157-0.878-0.245-1.359-0.245h-4.221h-1.4H22.613   c0,0-0.004,0-0.005,0c-2.122,0-3.346,0.38-3.346,0.38s0.355-1.599,1.21-1.724c3.87-0.258,10.223-1.399,14.849-5.814   c0.352-0.336,0.849-0.454,1.235-0.156c0.384,0.298,0.454,0.851,0.156,1.235c-0.494,0.638-1.031,1.193-1.577,1.677   c-0.524,0.464-0.323,1.332,0.348,1.532c2.766,0.826,5.836,1.211,8.102,1.391c0.381,0.03,0.715,0.274,0.842,0.635   C44.555,21.921,44.67,22.285,44.778,22.649z M27.868,25.006c0.134,0.179,0.271,0.467,0.166,0.826l-1.337,4.612   c-0.156,0.54-0.79,0.932-1.507,0.932h-4.284c-0.836,0-1.543-0.54-1.543-1.18v-4.612c0-0.64,0.707-1.18,1.543-1.18h1.697   l4.102,0.018C27.188,24.466,27.616,24.67,27.868,25.006z M22.03,41.363c-0.068-0.079-0.128-0.162-0.198-0.239   c-0.246-0.272-0.474-0.551-0.694-0.834c-0.077-0.103-0.154-0.206-0.229-0.311c-0.111-0.152-0.217-0.308-0.321-0.464   c-0.183-0.28-0.361-0.564-0.525-0.859c-0.009-0.016-0.019-0.033-0.028-0.049c-0.194-0.351-0.374-0.712-0.541-1.083   c-0.004-0.009-0.008-0.018-0.012-0.027c-0.511-1.147-0.888-2.385-1.11-3.698c-0.093-0.544-0.603-0.927-1.153-0.819   c-0.606,0.118-0.751,0.642-0.761,1.083c-0.008,0.328-0.366,0.544-0.673,0.425c-1.295-0.5-2.006-1.697-2.16-3.625   c-0.077-0.963,0.003-2.297,0.822-3.184c0.455-0.493,1.116-0.809,1.964-0.951c0.499-0.084,0.951,0.322,0.951,0.828l0,2.641   c0,1.753,1.59,3.18,3.543,3.18h4.284c1.614,0,3.023-0.978,3.429-2.376c0,0,1.319-3.847,1.448-5.402   c0.019-0.23,0.319-0.299,0.426-0.094c0.783,1.5,0.481,5.872,0.481,5.872h-0.902c-0.553,0-1,0.447-1,1s0.447,1,1,1h1.895h0.004   h1.898c0.553,0,1-0.447,1-1s-0.447-1-1-1h-0.895l0.017-4.302c0.003-0.667-0.14-1.299-0.395-1.871   c-0.167-0.375,0.081-0.798,0.492-0.798l0.786,0c0.296,0,0.512,0.272,0.449,0.562c-0.102,0.466-0.088,0.952,0.048,1.423l1.337,4.61   c0.405,1.399,1.814,2.377,3.429,2.377h4.284c1.953,0,3.543-1.427,3.543-3.18l0-2.566c0-0.527,0.49-0.943,1.002-0.819   c0.681,0.165,1.228,0.456,1.621,0.882c0.824,0.893,0.906,2.215,0.83,3.168c-0.199,2.502-1.201,3.422-2.321,3.74   c-0.254,0.072-0.548-0.066-0.616-0.321c-0.093-0.348-0.37-0.633-0.747-0.715c-0.536-0.124-1.072,0.225-1.189,0.764   c-1.466,6.713-7.012,11.401-13.488,11.401C28.093,45.731,24.552,44.093,22.03,41.363z"/></g><text x="0" y="84" fill="#000000" font-size="5px" font-weight="bold" font-family="'Helvetica Neue', Helvetica, Arial-Unicode, Arial, Sans-serif">from the Noun Project</text></svg>